<?xml version="1.0" encoding="UTF-8"?>
<svg width="500px" height="340px" viewBox="0 0 500 340" version="1.1" xmlns="http://www.w3.org/2000/svg" xmlns:xlink="http://www.w3.org/1999/xlink">
    <!-- Generator: Sketch 56.2 (81672) - https://sketch.com -->
    <title>safe-and-secure-header</title>
    <desc>Created with Sketch.</desc>
    <defs>
        <radialGradient cx="52.8337443%" cy="61.3780484%" fx="52.8337443%" fy="61.3780484%" r="62.1743547%" gradientTransform="translate(0.528337,0.613780),scale(0.622500,1.000000),rotate(106.623825),scale(1.000000,1.347234),translate(-0.528337,-0.613780)" id="radialGradient-1">
            <stop stop-color="#C9E2FF" offset="0%"></stop>
            <stop stop-color="#9CD7FF" stop-opacity="0" offset="100%"></stop>
        </radialGradient>
        <linearGradient x1="50%" y1="100%" x2="50%" y2="3.061617e-15%" id="linearGradient-2">
            <stop stop-color="#E5F1FF" offset="0%"></stop>
            <stop stop-color="#C8E0FF" offset="100%"></stop>
        </linearGradient>
        <linearGradient x1="50%" y1="100%" x2="50%" y2="3.061617e-15%" id="linearGradient-3">
            <stop stop-color="#DFEEFF" offset="0%"></stop>
            <stop stop-color="#BBD8FF" offset="100%"></stop>
        </linearGradient>
        <linearGradient x1="50%" y1="0%" x2="50%" y2="100%" id="linearGradient-4">
            <stop stop-color="#BFDBFF" offset="0%"></stop>
            <stop stop-color="#E8F2FF" offset="100%"></stop>
        </linearGradient>
        <linearGradient x1="100%" y1="-1.11022302e-14%" x2="-0.676651347%" y2="5.55111512e-15%" id="linearGradient-5">
            <stop stop-color="#DFEEFF" offset="0%"></stop>
            <stop stop-color="#DDEAFB" offset="100%"></stop>
        </linearGradient>
        <linearGradient x1="50%" y1="100%" x2="50%" y2="3.061617e-15%" id="linearGradient-6">
            <stop stop-color="#DFEEFF" stop-opacity="0" offset="0%"></stop>
            <stop stop-color="#BBD8FF" offset="100%"></stop>
        </linearGradient>
        <linearGradient x1="60.5876327%" y1="24.1537966%" x2="60.5876351%" y2="100%" id="linearGradient-7">
            <stop stop-color="#006DE4" offset="0%"></stop>
            <stop stop-color="#A8CFFD" offset="100%"></stop>
        </linearGradient>
        <linearGradient x1="50%" y1="69.7807787%" x2="50%" y2="100%" id="linearGradient-8">
            <stop stop-color="#DFE3E7" offset="0%"></stop>
            <stop stop-color="#C9CFD6" offset="100%"></stop>
        </linearGradient>
        <polygon id="path-9" points="97.845033 -2.2878921e-13 97.845033 18.6795063 -9.10099578e-13 18.6795063 -9.10099578e-13 -1.93620721e-13 97.845033 -1.93620721e-13"></polygon>
        <polygon id="path-11" points="97.845033 -2.2878921e-13 97.845033 18.6795063 -9.10099578e-13 18.6795063 -9.10099578e-13 -1.93620721e-13 97.845033 -1.93620721e-13"></polygon>
        <polygon id="path-13" points="97.845033 2.26485497e-14 97.845033 18.6795063 -9.10099578e-13 18.6795063 -9.10099578e-13 4.02304645e-14 97.845033 4.02304645e-14"></polygon>
        <linearGradient x1="50%" y1="0%" x2="50%" y2="100%" id="linearGradient-15">
            <stop stop-color="#FFFFFF" offset="0%"></stop>
            <stop stop-color="#B6D9FF" offset="100%"></stop>
        </linearGradient>
    </defs>
    <g id="FTUSA" stroke="none" stroke-width="1" fill="none" fill-rule="evenodd">
        <g id="assets-FTUSA" transform="translate(-1037.000000, -993.000000)">
            <g id="safe-and-secure-illustration-copy" transform="translate(1037.000000, 993.000000)">
                <path d="M275.040983,265.283692 C269.705491,265.959423 264.267694,266.307692 258.74843,266.307692 C253.229167,266.307692 247.791369,265.959423 242.455877,265.283692 L119.726997,265.283692 C115.573526,265.957446 111.311347,266.307692 106.967241,266.307692 C63.3548379,266.307692 28,231.00624 28,187.459692 C28,143.913144 63.3548379,108.611692 106.967241,108.611692 C116.109864,108.611692 124.889598,110.163058 133.056807,113.01653 C144.814654,54.4373763 196.620229,10.3076923 258.74843,10.3076923 C329.547785,10.3076923 386.942002,67.6152443 386.942002,138.307692 C386.942002,146.751043 386.123252,155.003453 384.5607,162.990086 C385.686446,162.919506 386.822413,162.883692 387.967551,162.883692 C416.057716,162.883692 439.24498,186.035943 439.24498,215.107692 C439.24498,243.155441 416.057716,266.307692 387.967551,266.307692 C384.373513,266.307692 380.86981,265.954913 377.488902,265.283692 L275.040983,265.283692 Z" id="Combined-Shape" fill="url(#radialGradient-1)"></path>
                <g id="Group-9" transform="translate(41.846154, 0.923077)">
                    <g id="Group-13-Copy">
                        <g id="confetti" transform="translate(13.150281, 0.000000)">
                            <path d="M239.211911,13.4116445 C239.211911,19.6212401 244.231638,24.6540293 250.424025,24.6540293 C256.613831,24.6540293 261.636139,19.6197624 261.636139,13.4116445 C261.636139,7.20703633 256.613278,2.17332421 250.424025,2.17332421 C244.232191,2.17332421 239.211911,7.20555888 239.211911,13.4116445 Z" id="Stroke-127" stroke="#E8F2FF" stroke-width="3"></path>
                            <g id="burst-copy" transform="translate(11.000182, 134.033564) rotate(-345.000000) translate(-11.000182, -134.033564) translate(2.500182, 125.033564)" fill="#D8EDFE">
                                <path d="M11.8110546,6.73760371 L11.1186221,6.04063031 C10.8964667,5.82083787 10.8964667,5.45933714 11.1186221,5.23376069 L15.2183996,1.12711245 C15.440555,0.901535993 15.801197,0.901535993 16.0204673,1.12711245 L16.7157849,1.82119384 C16.9350552,2.04387829 16.9350552,2.40537901 16.7157849,2.62806346 L12.6160074,6.73760371 C12.393852,6.96028815 12.03321,6.96028815 11.8110546,6.73760371" id="Fill-119"></path>
                                <path d="M1.3694608,17.2043511 L0.677028282,16.5102697 C0.45487285,16.2875853 0.45487285,15.9260845 0.677028282,15.7005081 L4.77392066,11.5938599 C4.9960761,11.3682834 5.35671803,11.3682834 5.57887346,11.5938599 L6.27130598,12.2879412 C6.49346141,12.5106257 6.49346141,12.8721264 6.27130598,13.0948109 L2.17152846,17.2043511 C1.94937303,17.4270356 1.59161623,17.4270356 1.3694608,17.2043511" id="Fill-120"></path>
                                <path d="M6.27188301,6.04005191 L5.57945049,6.7370253 C5.35729506,6.95970975 4.99665312,6.95970975 4.77161256,6.7370253 L0.677605309,2.62748506 C0.452564742,2.40480061 0.452564742,2.04329988 0.677605309,1.82061544 L1.37003782,1.12653404 C1.59219326,0.903849598 1.94995006,0.903849598 2.17210549,1.12653404 L6.27188301,5.23607429 C6.49403844,5.45875874 6.49403844,5.82025946 6.27188301,6.04005191" id="Fill-121"></path>
                                <path d="M16.716362,16.5094021 L16.0210443,17.2034835 C15.801774,17.426168 15.4411321,17.426168 15.2160915,17.2034835 L11.1191991,13.0939433 C10.8941586,12.8712588 10.8941586,12.5097581 11.1191991,12.2870736 L11.8116316,11.5929923 C12.0337871,11.3703078 12.394429,11.3703078 12.6165844,11.5929923 L16.716362,15.7025325 C16.9356323,15.9252169 16.9356323,16.2867177 16.716362,16.5094021" id="Fill-122"></path>
                            </g>
                            <circle id="Oval" fill="#E8F2FF" cx="437.884615" cy="253.269231" r="5.19230769"></circle>
                            <path d="M13.6724523,177.647645 C13.6724523,181.797557 17.0258552,185.158946 21.1659088,185.158946 C25.3019076,185.158946 28.6553104,181.797557 28.6553104,177.647645 C28.6553104,173.497733 25.3019076,170.136345 21.1659088,170.136345 C17.0258552,170.136345 13.6724523,173.497733 13.6724523,177.647645 Z" id="Stroke-129" stroke="#E8F2FF" stroke-width="3"></path>
                            <path d="M47.7686369,34.1144858 C47.2712669,33.6137697 46.4676661,33.6137697 45.9702962,34.1144858 L39.5357212,40.5923503 C39.0346606,41.0967819 39.0346606,41.9173866 39.5357212,42.4218182 L45.9702962,48.8996828 C46.4676661,49.4003988 47.2712669,49.4003988 47.7686369,48.8996828 L54.2032118,42.4218182 C54.7042724,41.9173866 54.7042724,41.0967819 54.2032118,40.5923503 L47.7686369,34.1144858 Z" id="Rectangle-9" stroke="#E8F2FF" stroke-width="2"></path>
                        </g>
                        <path d="M9,317.307692 L434.076923,317.307692 C439.047486,317.307692 443.076923,321.33713 443.076923,326.307692 L443.076923,329.076923 C443.076923,334.047486 439.047486,338.076923 434.076923,338.076923 L9,338.076923 C4.02943725,338.076923 6.08718376e-16,334.047486 0,329.076923 L0,326.307692 C-6.08718376e-16,321.33713 4.02943725,317.307692 9,317.307692 Z" id="Rectangle-11" fill="#E8F2FF"></path>
                        <path d="M172.124686,319.615385 L249.945106,319.615385 C251.878102,319.615385 253.445106,321.182388 253.445106,323.115385 L253.445106,324.192308 C253.445106,326.125304 251.878102,327.692308 249.945106,327.692308 L172.124686,327.692308 C170.19169,327.692308 168.624686,326.125304 168.624686,324.192308 L168.624686,323.115385 C168.624686,321.182388 170.19169,319.615385 172.124686,319.615385 Z" id="Rectangle-35" fill="url(#linearGradient-2)"></path>
                        <path d="M274.446883,320.769231 L303.39214,320.769231 C303.770743,320.769231 304.061547,320.83885 304.305992,320.96958 C304.550436,321.100311 304.742278,321.292152 304.873008,321.536596 C305.003738,321.781041 305.073358,322.071845 305.073358,322.450448 L305.073358,322.549552 C305.073358,322.928155 305.003738,323.218959 304.873008,323.463404 C304.742278,323.707848 304.550436,323.899689 304.305992,324.03042 C304.061547,324.16115 303.770743,324.230769 303.39214,324.230769 L274.446883,324.230769 C274.068279,324.230769 273.777475,324.16115 273.533031,324.03042 C273.288586,323.899689 273.096745,323.707848 272.966015,323.463404 C272.835284,323.218959 272.765665,322.928155 272.765665,322.549552 L272.765665,322.450448 C272.765665,322.071845 272.835284,321.781041 272.966015,321.536596 C273.096745,321.292152 273.288586,321.100311 273.533031,320.96958 C273.777475,320.83885 274.068279,320.769231 274.446883,320.769231 Z" id="Rectangle-35" fill="url(#linearGradient-3)"></path>
                        <path d="M370.743485,321.923077 L412.480153,321.923077 C413.23736,321.923077 413.818968,322.062315 414.307857,322.323776 C414.796746,322.585237 415.180429,322.968919 415.441889,323.457808 C415.70335,323.946697 415.842588,324.528305 415.842588,325.285512 L415.842588,325.483718 C415.842588,326.240926 415.70335,326.822534 415.441889,327.311422 C415.180429,327.800311 414.796746,328.183994 414.307857,328.445455 C413.818968,328.706915 413.23736,328.846154 412.480153,328.846154 L370.743485,328.846154 C369.986278,328.846154 369.40467,328.706915 368.915781,328.445455 C368.426892,328.183994 368.04321,327.800311 367.781749,327.311422 C367.520288,326.822534 367.38105,326.240926 367.38105,325.483718 L367.38105,325.285512 C367.38105,324.528305 367.520288,323.946697 367.781749,323.457808 C368.04321,322.968919 368.426892,322.585237 368.915781,322.323776 C369.40467,322.062315 369.986278,321.923077 370.743485,321.923077 Z" id="Rectangle-35-Copy" fill="url(#linearGradient-4)"></path>
                        <path d="M246.573358,315 L430.496434,315 C431.324862,315 431.996434,315.671573 431.996434,316.5 L431.996434,316.961538 C431.996434,317.789966 431.324862,318.461538 430.496434,318.461538 L246.573358,318.461538 C245.74493,318.461538 245.073358,317.789966 245.073358,316.961538 L245.073358,316.5 C245.073358,315.671573 245.74493,315 246.573358,315 Z M102.342588,315 L166.265665,315 C167.094092,315 167.765665,315.671573 167.765665,316.5 L167.765665,316.961538 C167.765665,317.789966 167.094092,318.461538 166.265665,318.461538 L102.342588,318.461538 C101.514161,318.461538 100.842588,317.789966 100.842588,316.961538 L100.842588,316.5 C100.842588,315.671573 101.514161,315 102.342588,315 Z" id="Combined-Shape" fill="url(#linearGradient-5)"></path>
                        <path d="M19.7272037,321.346154 L102.102204,321.346154 C104.0352,321.346154 105.602204,322.913157 105.602204,324.846154 L105.602204,325.923077 C105.602204,327.856074 104.0352,329.423077 102.102204,329.423077 L19.7272037,329.423077 C17.7942071,329.423077 16.2272037,327.856074 16.2272037,325.923077 L16.2272037,324.846154 C16.2272037,322.913157 17.7942071,321.346154 19.7272037,321.346154 Z" id="Rectangle-16" fill="url(#linearGradient-6)"></path>
                        <g id="Group-57" transform="translate(63.653846, 78.092496)">
                            <g id="Group" transform="translate(0.011451, 0.000000)">
                                <path d="M125.134623,215.108985 L162.974056,215.108985 L162.974056,229.421749 L125.134623,229.421749 L125.134623,215.108985 Z M125.133933,223.279301 C125.169329,227.374266 123.842922,229.421749 121.15471,229.421749 C118.466499,229.421749 119.792906,229.421749 125.133933,229.421749 L125.133933,223.279301 Z M162.974056,223.279301 C162.938659,227.374266 164.265067,229.421749 166.953278,229.421749 C169.64149,229.421749 168.315082,229.421749 162.974056,229.421749 L162.974056,223.279301 Z" id="Combined-Shape" fill="#BCC0C8"></path>
                                <polygon id="Rectangle-5" fill="url(#linearGradient-7)" points="13.7362602 14.1017006 274.394804 14.1017006 274.394804 151.569105 13.7362602 151.569105"></polygon>
                                <polygon id="Rectangle-7" fill="#979EAC" points="125.113136 215.155913 163.017929 215.155913 163.017929 224.645748 125.113136 219.212735"></polygon>
                                <path d="M2.95891471,0.417529815 L285.150122,0.417529815 C286.586062,0.417529815 287.750122,1.58158947 287.750122,3.01752981 L287.750122,211.108985 C287.750122,213.318124 285.959261,215.108985 283.750122,215.108985 L4.35891471,215.108985 C2.14977571,215.108985 0.35891471,213.318124 0.35891471,211.108985 L0.35891471,3.01752981 C0.35891471,1.58158947 1.52297436,0.417529815 2.95891471,0.417529815 Z M14.7284751,14.7302935 L14.7284751,150.701548 L273.380562,150.701548 L273.380562,14.7302935 L14.7284751,14.7302935 Z" id="Combined-Shape" fill="#DFE3E7"></path>
                                <path d="M4.35891471,0.417529815 L283.750122,0.417529815 C285.959261,0.417529815 287.750122,2.20839082 287.750122,4.41752981 L287.750122,171.912408 L0.35891471,171.912408 L0.35891471,4.41752981 C0.35891471,2.20839082 2.14977571,0.417529815 4.35891471,0.417529815 Z M14.7284751,14.7302935 L14.7284751,150.701548 L273.380562,150.701548 L273.380562,14.7302935 L14.7284751,14.7302935 Z" id="Combined-Shape" fill="#1B3147"></path>
                                <ellipse id="Oval-4" fill="#BCC0C8" cx="260.467324" cy="193.63984" rx="7.18478018" ry="7.15638184"></ellipse>
                                <path d="M260.467324,189.463392 C265.994452,189.418605 267.652104,193.619378 267.652104,193.639855 C267.652104,189.687479 264.435369,186.483458 260.467324,186.483458 C256.49928,186.483458 253.282544,189.687479 253.282544,193.639855 C253.282544,193.646485 254.940196,189.508178 260.467324,189.463392 Z" id="Oval-4" fill="#979EAC"></path>
                                <path d="M104.928985,229.421749 L183.180953,229.421749 C186.052834,229.421749 188.380953,231.749868 188.380953,234.621749 L188.380953,238.534512 C188.380953,241.406393 186.052834,243.734512 183.180953,243.734512 L104.928985,243.734512 C102.057104,243.734512 99.7289849,241.406393 99.7289849,238.534512 L99.7289849,234.621749 C99.7289849,231.749868 102.057104,229.421749 104.928985,229.421749 Z" id="Rectangle-3" fill="#E3E7EB"></path>
                                <path d="M188.380953,236.398839 C188.457316,240.580049 185.511152,243.734512 181.898633,243.734512 L106.211305,243.734512 C102.631219,243.734512 99.7289849,240.610763 99.7289849,236.757422 L99.7289849,236.398839 C158.808723,236.378716 188.359379,236.378716 188.380953,236.398839 Z M106.211305,229.421749 L106.211305,229.421749" id="Rectangle-3" fill="#BCC0C8"></path>
                            </g>
                        </g>
                        <g id="Group-38" transform="translate(273.342588, 308.861727)">
                            <rect id="Rectangle-21" fill="#E3E7EB" x="0" y="0.78480382" width="30.6651356" height="12.6923077" rx="6.34615385"></rect>
                            <path d="M30.6642481,8.07692308 C30.6110105,11.0684368 28.1693611,13.4771115 25.1651356,13.4771115 L5.5,13.4771115 C2.49577452,13.4771115 0.0541251509,11.0684368 0.000887488498,8.07692308 L30.6642481,8.07692308 Z" id="Combined-Shape" fill="#BCC0C8"></path>
                        </g>
                        <rect id="Rectangle-36" fill="#E8F2FF" x="361.611819" y="169.615385" width="6.92307692" height="6.92307692"></rect>
                        <g id="Group-37" transform="translate(354.688742, 5.769231)" fill="#E8F2FF">
                            <g id="Group-22" transform="translate(0.239062, 0.239062)">
                                <path d="M11.7461815,6.01837907 L11.0702585,5.33802344 C10.8533999,5.12347146 10.8533999,4.7705899 11.0702585,4.55039182 L15.072286,0.541657402 C15.2891446,0.321459314 15.6411879,0.321459314 15.8552302,0.541657402 L16.5339695,1.21918998 C16.7480118,1.43656501 16.7480118,1.78944656 16.5339695,2.0068216 L12.531942,6.01837907 C12.3150834,6.2357541 11.9630402,6.2357541 11.7461815,6.01837907" id="Fill-119"></path>
                                <path d="M1.55354411,16.2355703 L0.877621097,15.5580378 C0.660762464,15.3406627 0.660762464,14.9877812 0.877621097,14.7675831 L4.87683226,10.7588487 C5.09369089,10.5386506 5.44573413,10.5386506 5.66259276,10.7588487 L6.33851578,11.4363812 C6.55537441,11.6537563 6.55537441,12.0066378 6.33851578,12.2240129 L2.33648827,16.2355703 C2.11962963,16.4529454 1.77040274,16.4529454 1.55354411,16.2355703" id="Fill-120"></path>
                                <path d="M6.33907905,5.33745883 L5.66315603,6.01781446 C5.4462974,6.23518949 5.09425416,6.23518949 4.87457918,6.01781446 L0.878184367,2.00625699 C0.658509387,1.78888195 0.658509387,1.4360004 0.878184367,1.21862537 L1.55410738,0.541092791 C1.77096601,0.323717756 2.1201929,0.323717756 2.33705154,0.541092791 L6.33907905,4.55265026 C6.55593768,4.77002529 6.55593768,5.12290684 6.33907905,5.33745883" id="Fill-121"></path>
                                <path d="M16.5345328,15.5571908 L15.8557934,16.2347234 C15.6417512,16.4520985 15.2897079,16.4520985 15.0700329,16.2347234 L11.0708218,12.2231659 C10.8511468,12.0057909 10.8511468,11.6529094 11.0708218,11.4355343 L11.7467448,10.7580018 C11.9636034,10.5406267 12.3156467,10.5406267 12.5325053,10.7580018 L16.5345328,14.7695592 C16.7485751,14.9869343 16.7485751,15.3398158 16.5345328,15.5571908" id="Fill-122"></path>
                            </g>
                        </g>
                        <g id="Group-35" transform="translate(362.153660, 223.846154)">
                            <g id="Group-36">
                                <path d="M11.6579582,22.0598065 L11.7728423,25.5870749 C11.8614718,28.308252 14.1392701,30.4423534 16.8604472,30.3537239 C17.6174589,30.3290678 18.3586092,30.1303105 19.0263786,29.7728773 L20.4943981,28.9870987 L20.4943981,41.4034333 L15.2428693,41.4034333 C9.74049368,41.0971084 6.07870234,39.032108 4.25749533,35.2084321 C2.80669462,32.1624347 2.18305232,27.8302309 2.38656844,22.2118206 C2.47861691,19.6700027 4.5658947,17.6569636 7.10937872,17.6569636 C9.56514923,17.6569636 11.5780154,19.6053375 11.6579582,22.0598065 Z" id="Rectangle-10" fill="#12D37B"></path>
                                <path d="M47.6171292,35.944822 L47.7010749,38.522195 C47.7658365,40.5105577 49.4302225,42.0699445 51.4185851,42.0051829 C51.9717331,41.9871667 52.5132912,41.8419349 53.00123,41.5807586 L54.073911,41.0065906 L54.073911,50.0791996 L50.2366218,50.0791996 C46.2160389,49.8553682 43.5403699,48.3464735 42.209615,45.5525156 C41.1495134,43.3268021 40.6938186,40.1612541 40.8425307,36.0558717 C40.9098149,34.1985818 42.4349764,32.727667 44.2934846,32.727667 C46.0879148,32.727667 47.558715,34.1513428 47.6171292,35.944822 Z" id="Rectangle-10-Copy" fill="#12D37B" transform="translate(47.444500, 41.403433) scale(-1, 1) translate(-47.444500, -41.403433) "></path>
                                <g id="Group-35-Copy" transform="translate(5.069429, 57.183299)">
                                    <rect id="Rectangle-6" fill="#DFE3E7" x="0" y="0" width="49.0044819" height="42.245243" rx="6"></rect>
                                    <path d="M1.45519152e-11,31.6524996 C1.45519152e-11,36.221263 1.84556382,38.5056446 5.53669147,38.5056446 C11.0733829,38.5056446 38.7824564,38.5056446 43.9350527,38.5056446 C47.3701169,38.5056446 49.0599267,36.221263 49.0044819,31.6524996 L49.0044819,36.245243 C49.0044819,39.5589515 46.3181904,42.245243 43.0044819,42.245243 L6,42.245243 C2.6862915,42.245243 1.45514329e-11,39.5589515 1.45519152e-11,36.245243 L1.45519152e-11,31.6524996 Z" id="Rectangle-6" fill="#BCC0C8"></path>
                                    <path d="M1.45519152e-11,0 C1.45519152e-11,4.56876336 1.84556382,6.85314505 5.53669147,6.85314505 C11.0733829,6.85314505 38.7824564,6.85314505 43.9350527,6.85314505 C47.3701169,6.85314505 49.0599267,4.56876336 49.0044819,0 L49.0044819,4.59274341 C49.0044819,7.9064519 46.3181904,10.5927434 43.0044819,10.5927434 L6,10.5927434 C2.6862915,10.5927434 1.4552321e-11,7.9064519 1.45519152e-11,4.59274341 L1.45519152e-11,0 Z" id="Rectangle-6-Copy" fill="url(#linearGradient-8)" transform="translate(24.502901, 5.296372) scale(1, -1) translate(-24.502901, -5.296372) "></path>
                                </g>
                                <path d="M29.1492177,0.501353949 C36.7102317,0.501353949 42.8396447,6.63076692 42.8396447,14.191781 L42.8396447,57.4535305 L15.4587906,57.4535305 L15.4587906,14.191781 C15.4587906,6.63076692 21.5882036,0.501353949 29.1492177,0.501353949 Z" id="Rectangle-8" fill="#12D37B"></path>
                                <path d="M21.9675264,29.216577 C22.5380982,29.216577 23.000638,29.6791168 23.000638,30.2496886 L23.000638,57.4535305 L20.9344147,57.4535305 L20.9344147,30.2496886 C20.9344147,29.6791168 21.3969545,29.216577 21.9675264,29.216577 Z" id="Rectangle-14" fill="#09BF6C"></path>
                                <path d="M29.5716701,12.6735729 C30.1860671,12.6735729 30.6841344,13.1716401 30.6841344,13.7860372 L30.6841344,57.4535305 L28.4592058,57.4535305 L28.4592058,13.7860372 C28.4592058,13.1716401 28.9572731,12.6735729 29.5716701,12.6735729 Z" id="Rectangle-14" fill="#09BF6C"></path>
                                <path d="M37.1758138,19.4328118 C37.6389791,19.4328118 38.0144487,19.8082814 38.0144487,20.2714467 L38.0144487,57.4535305 L36.337179,57.4535305 L36.337179,20.2714467 C36.337179,19.8082814 36.7126486,19.4328118 37.1758138,19.4328118 Z" id="Rectangle-14-Copy" fill="#09BF6C"></path>
                                <path d="M41.2375406,17.6569636 L44.61716,17.6569636 C44.850474,17.6569636 45.0396124,17.846102 45.0396124,18.0794161 C45.0396124,18.3127301 44.850474,18.5018685 44.61716,18.5018685 L41.2375406,18.5018685 C41.0042265,18.5018685 40.8150881,18.3127301 40.8150881,18.0794161 C40.8150881,17.846102 41.0042265,17.6569636 41.2375406,17.6569636 Z" id="Rectangle-13" fill="#007C43"></path>
                                <path d="M16.7261479,35.3281672 L20.1057673,35.3281672 C20.3390814,35.3281672 20.5282198,35.5173056 20.5282198,35.7506196 C20.5282198,35.9839336 20.3390814,36.173072 20.1057673,36.173072 L16.7261479,36.173072 C16.4928339,36.173072 16.3036955,35.9839336 16.3036955,35.7506196 C16.3036955,35.5173056 16.4928339,35.3281672 16.7261479,35.3281672 Z" id="Rectangle-13-Copy" fill="#007C43"></path>
                                <path d="M0.84490486,25.0024593 L4.2245243,25.0024593 C4.45783833,25.0024593 4.64697673,25.1915977 4.64697673,25.4249117 C4.64697673,25.6582257 4.45783833,25.8473641 4.2245243,25.8473641 L0.84490486,25.8473641 C0.611590825,25.8473641 0.42245243,25.6582257 0.42245243,25.4249117 C0.42245243,25.1915977 0.611590825,25.0024593 0.84490486,25.0024593 Z" id="Rectangle-13-Copy-5" fill="#007C43"></path>
                                <path d="M9.69191599,29.6794057 L11.3817257,29.6794057 C11.6150397,29.6794057 11.8041781,29.8685441 11.8041781,30.1018581 C11.8041781,30.3351721 11.6150397,30.5243105 11.3817257,30.5243105 L9.69191599,30.5243105 C9.45860195,30.5243105 9.26946356,30.3351721 9.26946356,30.1018581 C9.26946356,29.8685441 9.45860195,29.6794057 9.69191599,29.6794057 Z" id="Rectangle-13-Copy-6" fill="#007C43" transform="translate(10.536821, 30.101858) rotate(-345.000000) translate(-10.536821, -30.101858) "></path>
                                <path d="M3.48884668,34.5924895 L5.1786564,34.5924895 C5.41197044,34.5924895 5.60110883,34.7816279 5.60110883,35.014942 C5.60110883,35.248256 5.41197044,35.4373944 5.1786564,35.4373944 L3.48884668,35.4373944 C3.25553265,35.4373944 3.06639425,35.248256 3.06639425,35.014942 C3.06639425,34.7816279 3.25553265,34.5924895 3.48884668,34.5924895 Z" id="Rectangle-13-Copy-7" fill="#007C43" transform="translate(4.333752, 35.014942) rotate(-45.000000) translate(-4.333752, -35.014942) "></path>
                                <path d="M25.7695982,41.4034333 L29.1492177,41.4034333 C29.3825317,41.4034333 29.5716701,41.5925717 29.5716701,41.8258858 C29.5716701,42.0591998 29.3825317,42.2483382 29.1492177,42.2483382 L25.7695982,42.2483382 C25.5362842,42.2483382 25.3471458,42.0591998 25.3471458,41.8258858 C25.3471458,41.5925717 25.5362842,41.4034333 25.7695982,41.4034333 Z" id="Rectangle-13-Copy-2" fill="#007C43"></path>
                                <path d="M29.4944348,18.635644 L32.8740542,18.635644 C33.1073683,18.635644 33.2965066,18.8247824 33.2965066,19.0580964 C33.2965066,19.2914105 33.1073683,19.4805488 32.8740542,19.4805488 L29.4944348,19.4805488 C29.2611207,19.4805488 29.0719823,19.2914105 29.0719823,19.0580964 C29.0719823,18.8247824 29.2611207,18.635644 29.4944348,18.635644 Z" id="Rectangle-13-Copy-13" fill="#007C43" transform="translate(31.184244, 19.058096) rotate(-330.000000) translate(-31.184244, -19.058096) "></path>
                                <path d="M37.1222435,3.39459122 L40.5018629,3.39459122 C40.735177,3.39459122 40.9243154,3.58372961 40.9243154,3.81704365 C40.9243154,4.05035768 40.735177,4.23949608 40.5018629,4.23949608 L37.1222435,4.23949608 C36.8889295,4.23949608 36.6997911,4.05035768 36.6997911,3.81704365 C36.6997911,3.58372961 36.8889295,3.39459122 37.1222435,3.39459122 Z" id="Rectangle-13-Copy-12" fill="#007C43" transform="translate(38.812053, 3.817044) rotate(-45.000000) translate(-38.812053, -3.817044) "></path>
                                <path d="M34.6410993,52.5363222 L38.0207187,52.5363222 C38.2540327,52.5363222 38.4431711,52.7254606 38.4431711,52.9587746 C38.4431711,53.1920886 38.2540327,53.381227 38.0207187,53.381227 L34.6410993,53.381227 C34.4077852,53.381227 34.2186468,53.1920886 34.2186468,52.9587746 C34.2186468,52.7254606 34.4077852,52.5363222 34.6410993,52.5363222 Z" id="Rectangle-13-Copy-11" fill="#007C43"></path>
                                <path d="M52.3841013,36.1005906 L55.7637208,36.1005906 C55.9970348,36.1005906 56.1861732,36.289729 56.1861732,36.5230431 C56.1861732,36.7563571 55.9970348,36.9454955 55.7637208,36.9454955 L52.3841013,36.9454955 C52.1507873,36.9454955 51.9616489,36.7563571 51.9616489,36.5230431 C51.9616489,36.289729 52.1507873,36.1005906 52.3841013,36.1005906 Z" id="Rectangle-13-Copy-8" fill="#007C43"></path>
                                <path d="M45.3918807,40.4093627 L47.5949422,40.4093627 C47.8282562,40.4093627 48.0173946,40.5985011 48.0173946,40.8318151 C48.0173946,41.0651292 47.8282562,41.2542676 47.5949422,41.2542676 L45.3918807,41.2542676 C45.1585667,41.2542676 44.9694283,41.0651292 44.9694283,40.8318151 C44.9694283,40.5985011 45.1585667,40.4093627 45.3918807,40.4093627 Z" id="Rectangle-13-Copy-9" fill="#007C43" transform="translate(46.493411, 40.831815) rotate(-330.000000) translate(-46.493411, -40.831815) "></path>
                                <path d="M45.7385288,49.7339825 L47.9415902,49.7339825 C48.1749043,49.7339825 48.3640427,49.9231209 48.3640427,50.156435 C48.3640427,50.389749 48.1749043,50.5788874 47.9415902,50.5788874 L45.7385288,50.5788874 C45.5052147,50.5788874 45.3160763,50.389749 45.3160763,50.156435 C45.3160763,49.9231209 45.5052147,49.7339825 45.7385288,49.7339825 Z" id="Rectangle-13-Copy-10" fill="#007C43" transform="translate(46.840059, 50.156435) rotate(-300.000000) translate(-46.840059, -50.156435) "></path>
                                <path d="M15.4520675,7.96809599 L18.831687,7.96809599 C19.065001,7.96809599 19.2541394,8.15723438 19.2541394,8.39054842 C19.2541394,8.62386245 19.065001,8.81300085 18.831687,8.81300085 L15.4520675,8.81300085 C15.2187535,8.81300085 15.0296151,8.62386245 15.0296151,8.39054842 C15.0296151,8.15723438 15.2187535,7.96809599 15.4520675,7.96809599 Z" id="Rectangle-13-Copy-4" fill="#007C43" transform="translate(17.141877, 8.390548) rotate(-315.000000) translate(-17.141877, -8.390548) "></path>
                                <path d="M11.8441581,49.6567472 L15.2237775,49.6567472 C15.4570916,49.6567472 15.64623,49.8458856 15.64623,50.0791996 C15.64623,50.3125137 15.4570916,50.5016521 15.2237775,50.5016521 L11.8441581,50.5016521 C11.610844,50.5016521 11.4217057,50.3125137 11.4217057,50.0791996 C11.4217057,49.8458856 11.610844,49.6567472 11.8441581,49.6567472 Z" id="Rectangle-13-Copy-3" fill="#007C43"></path>
                                <path d="M13.6675141,29.3568765 C14.1296729,29.6534815 14.4875011,29.8613455 14.7409986,29.9804685 C14.994496,30.0995915 15.2496166,30.179763 15.5063601,30.220983 L15.4632828,41.4034041 C15.1523939,41.3922972 14.7509988,41.3688033 14.2590977,41.3329225 C13.7671965,41.2970417 13.3222455,41.2343284 12.9242447,41.1447828 L13.6675141,29.3568765 Z" id="Rectangle-18" fill="#01B362"></path>
                                <path d="M42.8688219,41.9231145 L42.8688219,50.0247289 L45.1711869,50.0247289 L45.1711869,41.6658706 C45.0556681,41.757435 44.7303832,41.8431829 44.1953322,41.9231145 C43.6602812,42.0030461 43.2181111,42.0030461 42.8688219,41.9231145 Z" id="Path-4" fill="#01B362"></path>
                            </g>
                        </g>
                    </g>
                    <g id="exp_secure" transform="translate(9.230769, 181.153846)">
                        <g id="Group-3" transform="translate(0.000000, 49.812017)">
                            <mask id="mask-10" fill="white">
                                <use xlink:href="#path-9"></use>
                            </mask>
                            <g id="Clip-2"></g>
                            <path d="M84.0660882,-2.2878921e-13 L13.7764404,-2.2878921e-13 C6.168219,-2.2878921e-13 -9.10099578e-13,6.09533969 -9.10099578e-13,13.6136677 L-9.10099578e-13,18.6795063 C-9.10099578e-13,11.1611782 6.168219,5.06583855 13.7764404,5.06583855 L84.0660882,5.06583855 C91.6743096,5.06583855 97.845033,11.1611782 97.845033,18.6795063 L97.845033,13.6136677 C97.845033,6.09533969 91.6743096,-2.2878921e-13 84.0660882,-2.2878921e-13" id="Fill-1" fill="#12D37B" mask="url(#mask-10)"></path>
                        </g>
                        <g id="Group-6" transform="translate(0.000000, 49.812017)">
                            <mask id="mask-12" fill="white">
                                <use xlink:href="#path-11"></use>
                            </mask>
                            <g id="Clip-5"></g>
                            <path d="M84.0660882,-2.2878921e-13 L13.7764404,-2.2878921e-13 C6.168219,-2.2878921e-13 -9.10099578e-13,6.09533969 -9.10099578e-13,13.6136677 L-9.10099578e-13,18.6795063 C-9.10099578e-13,11.1611782 6.168219,5.06583855 13.7764404,5.06583855 L84.0660882,5.06583855 C91.6743096,5.06583855 97.845033,11.1611782 97.845033,18.6795063 L97.845033,13.6136677 C97.845033,6.09533969 91.6743096,-2.2878921e-13 84.0660882,-2.2878921e-13" id="Fill-4" fill="#FF9200" mask="url(#mask-12)"></path>
                        </g>
                        <path d="M84.0660882,54.2595183 L13.7764404,54.2595183 C6.168219,54.2595183 -9.09494702e-13,60.423736 -9.09494702e-13,68.027022 L-9.09494702e-13,126.773544 C-9.09494702e-13,134.37683 6.168219,140.541047 13.7764404,140.541047 L84.0660882,140.541047 C91.676814,140.541047 97.845033,134.37683 97.845033,126.773544 L97.845033,68.027022 C97.845033,60.423736 91.676814,54.2595183 84.0660882,54.2595183" id="Fill-7" fill="#FFA100"></path>
                        <path d="M84.0703918,133.109824 L13.7771457,133.109824 C6.16853477,133.109824 -2.2414362e-14,126.878768 -2.2414362e-14,119.19304 L-2.2414362e-14,127.513764 C-2.2414362e-14,135.199492 6.16853477,141.430548 13.7771457,141.430548 L84.0703918,141.430548 C91.6790027,141.430548 97.845033,135.199492 97.845033,127.513764 L97.845033,119.19304 C97.845033,126.878768 91.6790027,133.109824 84.0703918,133.109824" id="Fill-10" fill-opacity="0.1" fill="#2B3E51"></path>
                        <path d="M71.160024,96.0660324 C71.160024,83.784728 61.2038209,73.8285249 48.9225165,73.8285249 C36.6412121,73.8285249 26.685009,83.784728 26.685009,96.0660324 C26.685009,108.347337 36.6412121,118.30354 48.9225165,118.30354 C61.2038209,118.30354 71.160024,108.347337 71.160024,96.0660324" id="Fill-12" fill-opacity="0.1" fill="#33495F"></path>
                        <path d="M71.160024,92.5092732 C71.160024,80.2286547 61.2038209,70.2705237 48.9225165,70.2705237 C36.6412121,70.2705237 26.685009,80.2286547 26.685009,92.5092732 C26.685009,104.789892 36.6412121,114.745539 48.9225165,114.745539 C61.2038209,114.745539 71.160024,104.789892 71.160024,92.5092732" id="Fill-14" fill="#FFFFFF"></path>
                        <path d="M45.9894671,103.182035 C45.2830961,103.182035 44.5742553,102.905333 44.0358326,102.349392 L37.280851,95.4064723 C36.1990661,94.2971283 36.1990661,92.4973001 37.280851,91.387956 C38.3552265,90.278612 40.1112748,90.278612 41.1881201,91.387956 L45.9894671,96.322887 L57.5482656,84.4450362 C58.6226411,83.3356922 60.3786893,83.3356922 61.4555346,84.4450362 C62.5348498,85.5543803 62.5348498,87.3542085 61.4555346,88.4635525 L47.9431017,102.349392 C47.404679,102.905333 46.6958381,103.182035 45.9894671,103.182035" id="Fill-16" fill="#FF9200"></path>
                        <g id="Group-20" transform="translate(0.000000, 54.259518)">
                            <mask id="mask-14" fill="white">
                                <use xlink:href="#path-13"></use>
                            </mask>
                            <g id="Clip-19"></g>
                            <path d="M84.0660882,2.26485497e-14 L13.7764404,2.26485497e-14 C6.168219,2.26485497e-14 -9.10099578e-13,6.09453226 -9.10099578e-13,13.6118644 L-9.10099578e-13,18.6795063 C-9.10099578e-13,11.1596997 6.168219,5.06516749 13.7764404,5.06516749 L84.0660882,5.06516749 C91.6743096,5.06516749 97.845033,11.1596997 97.845033,18.6795063 L97.845033,13.6118644 C97.845033,6.09453226 91.6743096,2.26485497e-14 84.0660882,2.26485497e-14" id="Fill-18" fill-opacity="0.1" fill="#FFFFFF" mask="url(#mask-14)"></path>
                        </g>
                        <polygon id="Fill-21" fill-opacity="0.15" fill="#2B3E51" points="26.685009 55.1490186 36.4695123 49.8120168 26.685009 49.8120168"></polygon>
                        <polygon id="Fill-23" fill-opacity="0.15" fill="#2B3E51" points="72.0495243 55.1490186 62.265021 49.8120168 72.0495243 49.8120168"></polygon>
                        <path d="M26.7250365,55.1623611 L26.7250365,55.1490186 C26.711694,55.1543556 26.6983515,55.1570241 26.685009,55.1623611 L26.7250365,55.1623611 Z" id="Fill-25" fill="#CFD7DB"></path>
                        <path d="M48.9262586,2.89634853e-13 C28.8135789,2.89634853e-13 12.4530042,16.3865255 12.4530042,36.5286087 L12.4530042,46.5009514 L12.4530042,50.4189251 L12.4530042,54.9215965 L12.4530042,55.0340384 C14.3390357,55.6662114 16.6541643,56.0385189 19.1613887,56.0385189 C21.9130986,56.0385189 24.4377863,55.5912502 26.4111341,54.8416379 C26.4211131,54.8366405 26.4335868,54.8341418 26.4460606,54.8291443 L26.4460606,46.700848 L26.4460606,36.5286087 C26.4460606,24.1125299 36.5298427,14.0152518 48.9262586,14.0152518 C61.3201798,14.0152518 71.4014672,24.1125299 71.4014672,36.5286087 L71.4014672,54.8416379 L71.4363937,54.8416379 C73.4097414,55.5912502 75.9344291,56.0385189 78.6861391,56.0385189 C81.1933635,56.0385189 83.5084921,55.6662114 85.3920288,55.0340384 L85.3920288,54.9215965 L85.3920288,36.5286087 C85.3920288,16.3865255 69.0364436,2.89634853e-13 48.9262586,2.89634853e-13" id="Fill-27" fill="#CFD7DB"></path>
                    </g>
                </g>
                <path d="M422.303385,185.867736 L429.029442,196.362046 C429.327457,196.827024 429.192108,197.445553 428.727129,197.743569 C428.566082,197.846788 428.378809,197.901651 428.187524,197.901651 L414.735411,197.901651 C414.183127,197.901651 413.735411,197.453936 413.735411,196.901651 C413.735411,196.710365 413.790274,196.523093 413.893493,196.362046 L420.619549,185.867736 C420.917565,185.402757 421.536094,185.267407 422.001073,185.565423 C422.122459,185.643222 422.225586,185.74635 422.303385,185.867736 Z" id="Triangle-2" fill="#D2E8FF"></path>
                <circle id="Oval-8" fill="#D2E8FF" cx="174.538462" cy="51.6923077" r="4.61538462"></circle>
                <g id="Group-19" transform="translate(175.076983, 144.000000)">
                    <path d="M20.7692308,41.5384615 C9.29870135,41.5384615 0,32.2397602 0,20.7692308 C0,9.29870135 9.29870135,0 20.7692308,0 C32.2397602,0 41.5384615,9.29870135 41.5384615,20.7692308 C41.5384615,32.2397602 32.2397602,41.5384615 20.7692308,41.5384615 Z M20.821828,21.7684283 C24.2840069,21.7684283 27.0906575,18.9617777 27.0906575,15.4995987 C27.0906575,12.0374198 24.2840069,9.23076923 20.821828,9.23076923 C17.3596491,9.23076923 14.5529985,12.0374198 14.5529985,15.4995987 C14.5529985,18.9617777 17.3596491,21.7684283 20.821828,21.7684283 Z M28.0037931,31.7774078 C28.7456635,31.795324 29.4394028,31.4112962 29.8180702,30.7730927 C30.1967376,30.1348892 30.2013239,29.3419638 29.8300642,28.6994228 C27.9880925,25.4598369 24.5484587,23.4587981 20.821828,23.4587981 C17.0951973,23.4587981 13.6555635,25.4598369 11.8135918,28.6994228 C11.4433665,29.3403607 11.4470134,30.1310124 11.8231357,30.7685077 C12.1992579,31.4060031 12.8895565,31.7915303 13.629603,31.7774078 L28.0037931,31.7774078 Z" id="Combined-Shape" fill="url(#linearGradient-15)"></path>
                    <path d="M46.3153884,29.3359125 L148.244667,29.3359125 C148.52081,29.3359125 148.744667,29.5597701 148.744667,29.8359125 L148.744667,31.1420824 C148.744667,31.4182248 148.52081,31.6420824 148.244667,31.6420824 L46.3153884,31.6420824 C46.039246,31.6420824 45.8153884,31.4182248 45.8153884,31.1420824 L45.8153884,29.8359125 C45.8153884,29.5597701 46.039246,29.3359125 46.3153884,29.3359125 Z" id="Rectangle-path" fill="#D2E6FF" fill-rule="nonzero"></path>
                    <circle id="Oval-5" fill="#D2E6FF" cx="51.9230769" cy="21.9230769" r="2.30769231"></circle>
                    <circle id="Oval-5-Copy" fill="#D2E6FF" cx="62.3341815" cy="21.9230769" r="2.30769231"></circle>
                    <circle id="Oval-5-Copy-2" fill="#D2E6FF" cx="72.7187969" cy="21.9230769" r="2.30769231"></circle>
                    <circle id="Oval-5-Copy-3" fill="#D2E6FF" cx="83.1034123" cy="21.9230769" r="2.30769231"></circle>
                    <circle id="Oval-5-Copy-4" fill="#D2E6FF" cx="93.4880277" cy="21.9230769" r="2.30769231"></circle>
                    <circle id="Oval-5-Copy-5" fill="#D2E6FF" cx="103.872643" cy="21.9230769" r="2.30769231"></circle>
                    <circle id="Oval-5-Copy-6" fill="#D2E6FF" cx="114.257258" cy="21.9230769" r="2.30769231"></circle>
                    <circle id="Oval-5-Copy-7" fill="#D2E6FF" cx="124.641874" cy="21.9230769" r="2.30769231"></circle>
                    <circle id="Oval-5-Copy-8" fill="#D2E6FF" cx="135.026489" cy="21.9230769" r="2.30769231"></circle>
                    <circle id="Oval-5-Copy-9" fill="#D2E6FF" cx="145.411105" cy="21.9230769" r="2.30769231"></circle>
                </g>
            </g>
        </g>
    </g>
</svg>